<svg version="1.0" xmlns="http://www.w3.org/2000/svg" width="1166.667" height="1166.667" viewBox="0 0 875 875"><path d="M418.8 42.5c-.2.1-5.9.5-12.8.9-6.9.3-14.5.8-17 1-7.6.7-17.4 1.8-19 2.1-.8.1-4.2.6-7.5.9-3.3.4-6.7.9-7.5 1.1-.8.2-3.3.6-5.5 1-2.2.3-7.8 1.3-12.5 2.1-11.9 2.3-12 2.3-13.8 2.8-.9.3-2.8.7-4.2 1-1.4.3-3.4.7-4.5 1-1.1.2-4.2.9-6.8 1.5-39.8 9.1-95.6 31.1-132.2 52-6 3.5-12.9 7.4-15.3 8.8-14.7 8.3-44.8 30.1-63.2 45.7-10.9 9.3-35 32.5-35 33.8 0 1.8 50.9 51.8 52.7 51.8 1 0 3.9-2 6.4-4.3 50.9-47 90.4-72.7 145.4-94.6 28.8-11.5 71.8-23.5 95.5-26.6 2.5-.3 6.5-.8 9-1.2 2.5-.4 5.9-.7 7.5-.8 3-.2 13.7-1.2 21-2.1 13.7-1.5 20.3-1.9 40-1.9s36.4.7 43.5 1.9c1.4.3 5.2.7 8.5 1.1 3.3.3 6.7.8 7.5 1 .8.2 3.8.7 6.5 1 8.1 1.2 7.9 1.1 21.7 3.6 7 1.2 9.5 1.7 12.8 2.4 1.4.4 3.6.8 5 1.1 6 1.1 29.2 7.9 37.5 10.9s23.2 9.1 33 13.6c2.2.9 9.6 4.3 16.5 7.4 17.9 8.1 35.9 17.8 49 26.4 4.7 3 9.2 6 10.1 6.6 6.2 3.8 28.2 20.3 35.5 26.5 8.8 7.5 16.6 14.4 23.2 20.5 10.6 9.9 8.1 10.4 24-5.2 7.6-7.6 19.7-19.4 26.8-26.1l12.9-12.4-10.5-10c-21.6-20.4-49.7-42.9-72.5-58-12.7-8.4-31.2-19.8-32-19.8-.2 0-2.8-1.4-5.7-3.1-7.3-4.4-31-16.2-42.1-21-46.8-20.5-99.7-35-146.7-40.4-1.9-.2-5.3-.6-7.5-.9-2.2-.2-7.1-.7-11-1.1-3.8-.3-9.7-.8-13-1.1-6-.6-53.2-1.3-53.7-.9z"/><path d="M414.9 194.4c-.2.2-4.9.6-10.4 1-5.5.3-11.3.8-13 1.1-1.6.2-5 .7-7.5 1-7.6 1-10.4 1.4-13 2-1.4.3-3.6.7-5 1-4.3.8-13.4 2.6-15.8 3.1-1.2.2-9.2 2.4-17.7 4.9-30.5 8.7-65.6 23.9-90 39-2.2 1.3-5.2 3.1-6.6 3.9-8.1 4.6-40.3 28.3-47 34.6-.9.8-5.7 5.2-10.7 9.8-5.1 4.6-9.2 8.7-9.2 9.1 0 .4 11.5 12.3 25.5 26.4 16.1 16.2 26.3 25.7 27.5 25.7 1.1 0 5.9-3.6 10.7-8.1 22.3-20.6 55.1-41.6 84.4-54.1 24.4-10.5 58.3-19.9 80.4-22.4 3.3-.3 6.8-.8 7.8-1 7.7-1.4 35.7-2.1 47.2-1 3.9.3 9.5.8 12.5 1 7.5.7 18.9 2 26.5 3.2 2.7.4 4.7.8 14 3 1.7.4 3.7.8 4.5 1 .8.1 3.3.8 5.5 1.5 52.5 15.5 97.9 41.1 129.1 72.8 2.9 2.9 5.2 4.3 6.9 4.3 3.8 0 51.5-48.1 51.5-51.9 0-2.7-5.2-8.3-16.4-17.6-2.7-2.3-6.6-5.6-8.5-7.3-15.7-13.7-46.7-33.8-70.6-45.9-34.6-17.4-78-31.4-112.5-36.1-1.9-.2-4.8-.6-6.5-.9-1.6-.2-5.7-.7-9-1.1-3.3-.3-7.3-.8-9-1-3.9-.6-55.1-1.5-55.6-1z"/><path d="M423.7 335.6c-.1.1-3.8.4-8.2.8-8.7.7-22 2.7-28.5 4.2-1.4.3-3.6.8-5 1.1-5.2.9-20.3 5.4-29.2 8.7-45.7 16.7-83.3 43.2-112.5 79.1-16.9 20.9-33.1 49.2-40.8 71.5-4.4 12.7-9 30.8-10.5 41-.6 4.1-1.3 8.6-1.6 10-2.6 15.2-2.6 56.3 0 69.6.3 1.2.7 3.9 1.1 6 1.3 8.6 1.6 10.1 3.1 15.4l1.6 5.4 2.8-7.2c6.7-17.2 20.9-31.6 38.6-39 14.7-6.1 36.3-6.5 50-.7 2 .8 3.7 1.5 3.8 1.5 0 0 .1-8.2.1-18.2 0-22.4 1-31 5.8-48.3 9.9-35.5 37.4-69 73-88.8 42.2-23.4 81.3-26.4 123.9-9.3 51.5 20.7 85.2 61.7 95.8 116.3 9.2 47.8-.6 88.4-30.9 127.3-23.5 30.2-51.8 48.3-87.1 55.7-10.7 2.2-42.8 2.4-53.5.4-3.8-.8-7.7-1.5-8.5-1.6-5.3-1-15.7-4.2-23.5-7.2-18.6-7.4-32.9-16.8-47.3-30.9l-9.2-9.1-2.4 5.2c-15 32.8-50.3 49.2-84.1 39.1-2.7-.9-5-1.4-5.2-1.3-.8.8 15.7 19.8 26.1 30.2 12.9 12.8 26.4 23.5 41.3 32.8 10 6.1 30.8 16.5 38.8 19.3 2.8.9 7.5 2.6 10.5 3.6 4.6 1.6 11 3.5 18 5.3 4.8 1.3 25.9 5.5 29.8 6 2.6.3 6.3.7 8.2 1 24 3 51.8 2.6 75-1.1 22-3.4 38.7-8.2 59-16.9 51-21.8 98.1-65.7 123.2-115.1 9.6-18.8 17.6-40.5 20.4-55.4.3-1.4.7-3.2.9-4 .3-.8.7-3.3 1.1-5.5.3-2.2.7-4.2.9-4.5.2-.3.7-3.3 1-6.5.4-3.3.9-6.2 1-6.5.8-1.3 1.9-21.5 1.9-34.5 0-13.2-.8-27.1-2-32.6-.2-1.3-.7-4.1-.9-6.3-.2-2.1-.7-4.6-.9-5.5-.3-.9-.8-3.1-1.1-5-.3-1.9-.8-3.7-1-4.1-.2-.4-.7-2.2-1-4.1-1.4-8.3-10.2-31.6-17-45.4-8.1-16.4-18.5-32.7-30.2-47.5-10.2-12.7-30.6-32.9-42.3-41.8-5.2-3.9-9.9-7.5-10.5-8-3.1-2.5-20.4-12.6-29-17-20.9-10.6-50.5-20.3-72-23.6-2.2-.4-6.7-1.1-10-1.6-9.9-1.5-20.2-2.2-35.8-2.4-8.1-.1-14.9-.1-15 0z"/><path d="M420.4 499.5c-9 2-18.4 6.3-27.1 12.5-6.4 4.5-7.8 6-7.8 8.2 0 2.1 5.2 7.8 25.9 28.8l25.8 26.2 12.5-12.9c6.9-7 18.8-19.1 26.4-26.9 9.8-9.9 13.8-14.6 13.3-15.7-.8-2.1-14.4-11.5-21.4-14.8-12.7-6-34-8.4-47.6-5.4zM248.5 618.7c-21.1 4.6-36.6 19.8-40.8 40-2.8 13.5-.4 26.3 7.2 38.1 4 6.3 9.3 11.3 16.6 15.7 22.9 13.8 52.3 7.1 67.7-15.3 6.5-9.3 8.2-15.1 8.2-28.2 0-10.4-.3-12.2-2.8-18.5-8.1-19.6-25-31.5-45.6-32-4.7-.1-9.4 0-10.5.2z"/></svg>