<?xml version="1.0" standalone="no"?>
<!DOCTYPE svg PUBLIC "-//W3C//DTD SVG 20010904//EN"
 "http://www.w3.org/TR/2001/REC-SVG-20010904/DTD/svg10.dtd">
<svg version="1.0" xmlns="http://www.w3.org/2000/svg"
 width="875.000000pt" height="875.000000pt" viewBox="0 0 875.000000 875.000000"
 preserveAspectRatio="xMidYMid meet">
<metadata>
Created by potrace 1.11, written by Peter Selinger 2001-2013
</metadata>
<g transform="translate(0.000000,875.000000) scale(0.100000,-0.100000)"
fill="#000000" stroke="none">
<path d="M4188 8325 c-2 -1 -59 -5 -128 -9 -69 -3 -145 -8 -170 -10 -76 -7
-174 -18 -190 -21 -8 -1 -42 -6 -75 -9 -33 -4 -67 -9 -75 -11 -8 -2 -33 -6
-55 -10 -22 -3 -78 -13 -125 -21 -119 -23 -120 -23 -138 -28 -9 -3 -28 -7 -42
-10 -14 -3 -34 -7 -45 -10 -11 -2 -42 -9 -68 -15 -398 -91 -956 -311 -1322
-520 -60 -35 -129 -74 -153 -88 -147 -83 -448 -301 -632 -457 -109 -93 -350
-325 -350 -338 0 -18 509 -518 527 -518 10 0 39 20 64 43 509 470 904 727
1454 946 288 115 718 235 955 266 25 3 65 8 90 12 25 4 59 7 75 8 30 2 137 12
210 21 137 15 203 19 400 19 197 0 364 -7 435 -19 14 -3 52 -7 85 -11 33 -3
67 -8 75 -10 8 -2 38 -7 65 -10 81 -12 79 -11 217 -36 70 -12 95 -17 128 -24
14 -4 36 -8 50 -11 60 -11 292 -79 375 -109 83 -30 232 -91 330 -136 22 -9 96
-43 165 -74 179 -81 359 -178 490 -264 47 -30 92 -60 101 -66 62 -38 282 -203
355 -265 88 -75 166 -144 232 -205 106 -99 81 -104 240 52 76 76 197 194 268
261 l129 124 -105 100 c-216 204 -497 429 -725 580 -127 84 -312 198 -320 198
-2 0 -28 14 -57 31 -73 44 -310 162 -421 210 -468 205 -997 350 -1467 404 -19
2 -53 6 -75 9 -22 2 -71 7 -110 11 -38 3 -97 8 -130 11 -60 6 -532 13 -537 9z"/>
<path d="M4149 6806 c-2 -2 -49 -6 -104 -10 -55 -3 -113 -8 -130 -11 -16 -2
-50 -7 -75 -10 -76 -10 -104 -14 -130 -20 -14 -3 -36 -7 -50 -10 -43 -8 -134
-26 -158 -31 -12 -2 -92 -24 -177 -49 -305 -87 -656 -239 -900 -390 -22 -13
-52 -31 -66 -39 -81 -46 -403 -283 -470 -346 -9 -8 -57 -52 -107 -98 -51 -46
-92 -87 -92 -91 0 -4 115 -123 255 -264 161 -162 263 -257 275 -257 11 0 59
36 107 81 223 206 551 416 844 541 244 105 583 199 804 224 33 3 68 8 78 10
77 14 357 21 472 10 39 -3 95 -8 125 -10 75 -7 189 -20 265 -32 27 -4 47 -8
140 -30 17 -4 37 -8 45 -10 8 -1 33 -8 55 -15 525 -155 979 -411 1291 -728 29
-29 52 -43 69 -43 38 0 515 481 515 519 0 27 -52 83 -164 176 -27 23 -66 56
-85 73 -157 137 -467 338 -706 459 -346 174 -780 314 -1125 361 -19 2 -48 6
-65 9 -16 2 -57 7 -90 11 -33 3 -73 8 -90 10 -39 6 -551 15 -556 10z"/>
<path d="M4237 5394 c-1 -1 -38 -4 -82 -8 -87 -7 -220 -27 -285 -42 -14 -3
-36 -8 -50 -11 -52 -9 -203 -54 -292 -87 -457 -167 -833 -432 -1125 -791 -169
-209 -331 -492 -408 -715 -44 -127 -90 -308 -105 -410 -6 -41 -13 -86 -16
-100 -26 -152 -26 -563 0 -696 3 -12 7 -39 11 -60 13 -86 16 -101 31 -154 l16
-54 28 72 c67 172 209 316 386 390 147 61 363 65 500 7 20 -8 37 -15 38 -15 0
0 1 82 1 182 0 224 10 310 58 483 99 355 374 690 730 888 422 234 813 264
1239 93 515 -207 852 -617 958 -1163 92 -478 -6 -884 -309 -1273 -235 -302
-518 -483 -871 -557 -107 -22 -428 -24 -535 -4 -38 8 -77 15 -85 16 -53 10
-157 42 -235 72 -186 74 -329 168 -473 309 l-92 91 -24 -52 c-150 -328 -503
-492 -841 -391 -27 9 -50 14 -52 13 -8 -8 157 -198 261 -302 129 -128 264
-235 413 -328 100 -61 308 -165 388 -193 28 -9 75 -26 105 -36 46 -16 110 -35
180 -53 48 -13 259 -55 298 -60 26 -3 63 -7 82 -10 240 -30 518 -26 750 11
220 34 387 82 590 169 510 218 981 657 1232 1151 96 188 176 405 204 554 3 14
7 32 9 40 3 8 7 33 11 55 3 22 7 42 9 45 2 3 7 33 10 65 4 33 9 62 10 65 8 13
19 215 19 345 0 132 -8 271 -20 326 -2 13 -7 41 -9 63 -2 21 -7 46 -9 55 -3 9
-8 31 -11 50 -3 19 -8 37 -10 41 -2 4 -7 22 -10 41 -14 83 -102 316 -170 454
-81 164 -185 327 -302 475 -102 127 -306 329 -423 418 -52 39 -99 75 -105 80
-31 25 -204 126 -290 170 -209 106 -505 203 -720 236 -22 4 -67 11 -100 16
-99 15 -202 22 -358 24 -81 1 -149 1 -150 0z"/>
<path d="M4204 3755 c-90 -20 -184 -63 -271 -125 -64 -45 -78 -60 -78 -82 0
-21 52 -78 259 -288 l258 -262 125 129 c69 70 188 191 264 269 98 99 138 146
133 157 -8 21 -144 115 -214 148 -127 60 -340 84 -476 54z"/>
<path d="M2485 2563 c-211 -46 -366 -198 -408 -400 -28 -135 -4 -263 72 -381
40 -63 93 -113 166 -157 229 -138 523 -71 677 153 65 93 82 151 82 282 0 104
-3 122 -28 185 -81 196 -250 315 -456 320 -47 1 -94 0 -105 -2z"/>
</g>
</svg>
